<svg width="18" height="14" viewBox="0 0 18 14" fill="none" xmlns="http://www.w3.org/2000/svg">
<path d="M17.5392 7.68297C17.892 7.31714 17.8814 6.73458 17.5156 6.38179L11.554 0.632735C11.1882 0.279944 10.6056 0.290516 10.2528 0.656348C9.90003 1.02218 9.91061 1.60474 10.2764 1.95753L15.5756 7.0678L10.4653 12.367C10.1125 12.7328 10.1231 13.3154 10.489 13.6682C10.8548 14.0209 11.4373 14.0104 11.7901 13.6445L17.5392 7.68297ZM0.601821 8.10611C2.62846 9.0788 4.11951 9.59758 5.3717 9.78868C6.65884 9.98511 7.64303 9.82752 8.62551 9.54432C10.491 9.00659 12.3057 8.04752 16.8935 7.96426L16.8601 6.12412C11.9598 6.21304 9.82316 7.2837 8.11575 7.77587C7.3118 8.00761 6.60417 8.11501 5.64936 7.9693C4.6596 7.81825 3.35855 7.38776 1.39818 6.44687L0.601821 8.10611Z" fill="#585E4C"/>
</svg>
