<svg width="14" height="18" viewBox="0 0 14 18" fill="none" xmlns="http://www.w3.org/2000/svg">
<path d="M6.23129 17.6044C6.5755 17.9783 7.15766 18.0024 7.53158 17.6582L13.6249 12.049C13.9988 11.7048 14.0229 11.1226 13.6787 10.7487C13.3345 10.3748 12.7523 10.3507 12.3784 10.6949L6.96212 15.6809L1.97615 10.2646C1.63195 9.89069 1.04979 9.8666 0.675871 10.2108C0.301954 10.555 0.277871 11.1372 0.62208 11.5111L6.23129 17.6044ZM6.81593 0.671865C5.72446 2.63709 5.11794 4.09465 4.85273 5.33327C4.58012 6.60645 4.67892 7.59827 4.90321 8.59585C5.32907 10.49 6.17855 12.3585 5.98889 16.9431L7.82777 17.0192C8.03035 12.1223 7.08862 9.92578 6.69884 8.19213C6.5153 7.37583 6.45017 6.66307 6.65239 5.71861C6.86202 4.73958 7.36911 3.46643 8.42489 1.56547L6.81593 0.671865Z" fill="#1F2E13"/>
</svg>
