<svg width="28" height="28" viewBox="0 0 28 28" fill="none" xmlns="http://www.w3.org/2000/svg">
<path d="M9.1 2.33325H18.9C22.6333 2.33325 25.6667 5.36659 25.6667 9.09992V18.8999C25.6667 20.6946 24.9538 22.4157 23.6848 23.6847C22.4158 24.9537 20.6946 25.6666 18.9 25.6666H9.1C5.36667 25.6666 2.33334 22.6333 2.33334 18.8999V9.09992C2.33334 7.30529 3.04625 5.58416 4.31525 4.31516C5.58424 3.04617 7.30537 2.33325 9.1 2.33325ZM8.86667 4.66659C7.75276 4.66659 6.68447 5.10908 5.89682 5.89674C5.10917 6.68439 4.66667 7.75268 4.66667 8.86659V19.1333C4.66667 21.4549 6.545 23.3333 8.86667 23.3333H19.1333C20.2472 23.3333 21.3155 22.8908 22.1032 22.1031C22.8908 21.3154 23.3333 20.2472 23.3333 19.1333V8.86659C23.3333 6.54492 21.455 4.66659 19.1333 4.66659H8.86667ZM20.125 6.41659C20.5118 6.41659 20.8827 6.57023 21.1562 6.84372C21.4297 7.11721 21.5833 7.48814 21.5833 7.87492C21.5833 8.26169 21.4297 8.63263 21.1562 8.90612C20.8827 9.17961 20.5118 9.33325 20.125 9.33325C19.7382 9.33325 19.3673 9.17961 19.0938 8.90612C18.8203 8.63263 18.6667 8.26169 18.6667 7.87492C18.6667 7.48814 18.8203 7.11721 19.0938 6.84372C19.3673 6.57023 19.7382 6.41659 20.125 6.41659ZM14 8.16658C15.5471 8.16658 17.0308 8.78117 18.1248 9.87513C19.2188 10.9691 19.8333 12.4528 19.8333 13.9999C19.8333 15.547 19.2188 17.0307 18.1248 18.1247C17.0308 19.2187 15.5471 19.8333 14 19.8333C12.4529 19.8333 10.9692 19.2187 9.87521 18.1247C8.78125 17.0307 8.16667 15.547 8.16667 13.9999C8.16667 12.4528 8.78125 10.9691 9.87521 9.87513C10.9692 8.78117 12.4529 8.16658 14 8.16658ZM14 10.4999C13.0717 10.4999 12.1815 10.8687 11.5251 11.525C10.8688 12.1814 10.5 13.0717 10.5 13.9999C10.5 14.9282 10.8688 15.8184 11.5251 16.4748C12.1815 17.1312 13.0717 17.4999 14 17.4999C14.9283 17.4999 15.8185 17.1312 16.4749 16.4748C17.1313 15.8184 17.5 14.9282 17.5 13.9999C17.5 13.0717 17.1313 12.1814 16.4749 11.525C15.8185 10.8687 14.9283 10.4999 14 10.4999Z" fill="white"/>
</svg>
