<svg width="211" height="115" viewBox="0 0 211 115" fill="none" xmlns="http://www.w3.org/2000/svg">
<path d="M12.6603 51.9693C15.3622 51.9972 17.5071 52.3454 19.0948 53.0139C20.7105 53.6824 21.8525 54.5877 22.521 55.7298C23.2174 56.844 23.5238 58.1393 23.4403 59.6156C23.3846 60.6741 23.1199 61.7605 22.6464 62.8747C22.2007 63.9611 21.4068 64.9499 20.2648 65.8413C19.1227 66.7327 17.4792 67.4012 15.3344 67.8469C15.7801 68.3483 16.1143 68.7243 16.3372 68.975C16.56 69.1979 16.7411 69.3929 16.8803 69.56C17.0196 69.6993 17.1728 69.9082 17.34 70.1867C17.5071 70.4653 17.7578 70.8971 18.092 71.482L20.6826 75.9528C21.1283 76.7049 21.5461 77.3873 21.9361 78.0002C22.3539 78.5851 22.8414 79.0587 23.3985 79.4208C23.9835 79.7551 24.7077 79.9222 25.5712 79.9222L25.4876 81.301H20.3901C19.7773 80.7718 19.1784 80.1032 18.5934 79.2954C18.0363 78.4598 17.4792 77.5823 16.9221 76.6631L14.3734 72.1923C14.0391 71.5795 13.663 70.8971 13.2452 70.145C12.8274 69.3929 12.3399 68.7522 11.7828 68.2229C11.5321 68.2508 11.17 68.2647 10.6965 68.2647C10.2508 68.2647 9.83294 68.2647 9.44296 68.2647C9.05299 68.2369 8.81622 68.2229 8.73265 68.2229L8.31482 76.3288C8.28697 77.0809 8.24518 77.7355 8.18947 78.2926C8.13376 78.8219 8.07805 79.2676 8.02234 79.6297C8.3566 79.6018 8.69087 79.5879 9.02513 79.5879C9.3594 79.5601 9.69366 79.5322 10.0279 79.5044C10.3622 79.4765 10.6965 79.4626 11.0307 79.4626L10.9472 81.301H1.7131L1.79667 79.9222C2.85517 79.8665 3.59334 79.6297 4.01117 79.2119C4.429 78.7662 4.6797 78.1673 4.76326 77.4152C4.84683 76.6353 4.90254 75.7578 4.9304 74.7829L5.89141 56.7326C5.91926 56.1755 5.96104 55.6462 6.01676 55.1449C6.07247 54.6156 6.12818 54.1421 6.18389 53.7242C5.68249 53.7521 5.16717 53.7799 4.63792 53.8078C4.13652 53.8357 3.63512 53.8635 3.13373 53.8914L3.25908 52.0529C4.81898 52.0251 6.36495 51.9972 7.89699 51.9693C9.45689 51.9415 11.0446 51.9415 12.6603 51.9693ZM12.4096 53.5571C11.4346 53.5571 10.7382 53.7521 10.3204 54.1421C9.90258 54.532 9.63795 55.0891 9.52653 55.8134C9.41511 56.5098 9.33154 57.3594 9.27583 58.3621L8.81622 66.5934C9.2619 66.6213 9.67973 66.6491 10.0697 66.677C10.4875 66.7048 10.9332 66.7048 11.4068 66.677C12.9388 66.6213 14.3037 66.3706 15.5015 65.9249C16.6993 65.4792 17.6464 64.7689 18.3427 63.7939C19.067 62.819 19.4709 61.5377 19.5545 59.9499C19.6102 58.8914 19.4987 57.9722 19.2202 57.1922C18.9695 56.3844 18.5517 55.7159 17.9667 55.1866C17.4096 54.6295 16.6575 54.2256 15.7104 53.9749C14.7912 53.6964 13.6909 53.5571 12.4096 53.5571ZM39.3237 59.9499C40.3265 59.9499 41.2736 60.1031 42.1649 60.4095C43.0563 60.7159 43.7806 61.2173 44.3377 61.9137C44.8948 62.6101 45.1733 63.5572 45.1733 64.7549C45.1733 65.897 44.7833 66.8859 44.0034 67.7215C43.2234 68.5572 42.2067 69.2536 40.9532 69.8107C39.6997 70.3399 38.3627 70.7717 36.9421 71.106C35.5214 71.4402 34.1565 71.677 32.8473 71.8163C32.8473 73.5433 33.0145 74.9918 33.3487 76.1617C33.7108 77.3316 34.2401 78.2091 34.9365 78.794C35.6329 79.379 36.5242 79.6715 37.6106 79.6715C38.4184 79.6715 39.2262 79.4904 40.034 79.1283C40.8697 78.7662 41.6635 78.223 42.4156 77.4988C43.1677 76.7467 43.8502 75.7857 44.463 74.6157L45.8418 75.4096C45.0619 76.8581 44.2262 78.0559 43.3349 79.003C42.4435 79.95 41.4686 80.6464 40.4101 81.0921C39.3516 81.5378 38.1816 81.7606 36.9003 81.7606C34.254 81.7606 32.3042 80.9389 31.0507 79.2954C29.7972 77.6241 29.1704 75.4375 29.1704 72.7355C29.1704 71.1199 29.3793 69.5461 29.7972 68.014C30.215 66.482 30.8417 65.1171 31.6774 63.9193C32.5131 62.6937 33.5716 61.7326 34.8529 61.0363C36.1343 60.312 37.6245 59.9499 39.3237 59.9499ZM38.7387 61.3705C37.4574 61.3705 36.3989 61.8023 35.5632 62.6658C34.7554 63.5293 34.1287 64.6435 33.683 66.0084C33.2652 67.3734 33.0005 68.8079 32.8891 70.3121C34.3654 70.1171 35.7721 69.7689 37.1092 69.2675C38.4463 68.7661 39.5465 68.1254 40.4101 67.3455C41.2736 66.5377 41.7053 65.6045 41.7053 64.546C41.7053 63.6547 41.4546 62.9026 40.9532 62.2898C40.4797 61.6769 39.7415 61.3705 38.7387 61.3705ZM68.8878 81.7606C67.5786 81.7606 66.6872 81.4124 66.2137 80.7161C65.7401 80.0197 65.5034 79.0308 65.5034 77.7495C65.5034 76.9695 65.5591 76.0503 65.6705 74.9918C65.8098 73.9333 65.963 72.8051 66.1301 71.6074C66.3251 70.4096 66.4783 69.1979 66.5897 67.9722C66.729 66.7466 66.7986 65.5767 66.7986 64.4625C66.7986 64.1282 66.7429 63.7661 66.6315 63.3761C66.5479 62.9861 66.3669 62.6519 66.0883 62.3733C65.8098 62.0669 65.392 61.9137 64.8348 61.9137C64.0549 61.9137 63.2749 62.2758 62.495 63.0001C61.715 63.7243 60.9769 64.6992 60.2805 65.9249C59.5841 67.1505 58.9574 68.5154 58.4003 70.0196C57.8432 71.4959 57.3975 73.028 57.0632 74.6157C56.7568 76.1756 56.6036 77.6659 56.6036 79.0865C56.6036 79.5044 56.6036 79.8943 56.6036 80.2564C56.6314 80.5907 56.6593 80.9389 56.6872 81.301H53.1774C53.1495 81.106 53.1356 80.9389 53.1356 80.7996C53.1356 80.6325 53.1356 80.4375 53.1356 80.2147C53.1356 79.7411 53.1635 79.1979 53.2192 78.5851C53.2749 77.9445 53.3584 77.1088 53.4699 76.0781C53.6091 75.0196 53.7763 73.6129 53.9713 71.8581C54.1662 70.2146 54.3055 68.9333 54.3891 68.014C54.5005 67.0948 54.5841 66.3984 54.6398 65.9249C54.6955 65.4235 54.7234 65.0474 54.7234 64.7967C54.7512 64.5182 54.7651 64.2257 54.7651 63.9193C54.7651 63.4179 54.6955 62.9861 54.5562 62.624C54.4169 62.234 54.1105 62.0391 53.637 62.0391C53.1913 62.0391 52.676 62.3455 52.091 62.9583C51.5061 63.5711 51.0047 64.6157 50.5868 66.092L49.4169 65.8413C49.5005 65.3399 49.6676 64.7689 49.9183 64.1282C50.1969 63.4597 50.559 62.8051 51.0047 62.1644C51.4503 61.5237 51.9935 60.9945 52.6342 60.5766C53.2749 60.1588 54.013 59.9499 54.8487 59.9499C55.7958 59.9499 56.4922 60.2145 56.9379 60.7438C57.4114 61.2452 57.7039 61.8998 57.8153 62.7076C57.9546 63.5154 57.9964 64.3789 57.9406 65.2981C57.8849 66.0781 57.7874 66.8302 57.6482 67.5544C57.5367 68.2787 57.4253 68.9193 57.3139 69.4764H57.4392C58.3863 66.9416 59.3195 64.9917 60.2387 63.6268C61.1579 62.234 62.0632 61.273 62.9546 60.7438C63.8738 60.2145 64.7791 59.9499 65.6705 59.9499C66.7847 59.9499 67.6761 60.2006 68.3446 60.702C69.0131 61.2034 69.4867 61.8719 69.7652 62.7076C70.0716 63.5154 70.2249 64.4068 70.2249 65.3817C70.2249 66.9137 70.1134 68.4876 69.8906 70.1032C69.6956 71.6909 69.4867 73.1673 69.2638 74.5322C69.0689 75.8692 68.9714 76.9417 68.9714 77.7495C68.9714 78.2509 69.0271 78.6966 69.1385 79.0865C69.2778 79.4765 69.5981 79.6715 70.0995 79.6715C70.573 79.6715 71.0884 79.379 71.6455 78.794C72.2304 78.1812 72.7318 77.1227 73.1497 75.6185L74.3196 75.911C74.236 76.3846 74.055 76.9556 73.7764 77.6241C73.5257 78.2926 73.1775 78.9472 72.7318 79.5879C72.2861 80.2007 71.743 80.7161 71.1023 81.1339C70.4616 81.5517 69.7235 81.7606 68.8878 81.7606ZM88.452 59.9499C89.9562 59.9499 91.3072 60.312 92.505 61.0363C93.7028 61.7326 94.6499 62.7633 95.3462 64.1282C96.0426 65.4931 96.3908 67.1505 96.3908 69.1004C96.3908 71.3288 95.9869 73.418 95.1791 75.3678C94.3713 77.2899 93.2014 78.8358 91.6693 80.0058C90.1651 81.1757 88.3267 81.7606 86.154 81.7606C84.3155 81.7606 82.7974 81.3428 81.5996 80.5071C80.4297 79.6715 79.5523 78.5433 78.9673 77.1227C78.4102 75.7021 78.1316 74.1283 78.1316 72.4012C78.1316 70.145 78.5355 68.0697 79.3433 66.1756C80.179 64.2814 81.3629 62.7772 82.8949 61.663C84.4548 60.5209 86.3072 59.9499 88.452 59.9499ZM87.8253 61.4959C86.5997 61.468 85.5412 61.8858 84.6498 62.7494C83.7584 63.585 83.062 64.7271 82.5606 66.1756C82.0871 67.624 81.8364 69.2397 81.8085 71.0224C81.7807 71.9695 81.8364 72.9723 81.9757 74.0308C82.115 75.0893 82.3517 76.0781 82.686 76.9974C83.0481 77.9166 83.5356 78.6687 84.1484 79.2537C84.7891 79.8386 85.5829 80.145 86.53 80.1729C87.6442 80.2007 88.5913 79.9083 89.3713 79.2954C90.1512 78.6548 90.778 77.833 91.2515 76.8302C91.725 75.8274 92.0732 74.755 92.2961 73.6129C92.5468 72.4709 92.6861 71.3984 92.7139 70.3957C92.7418 69.4207 92.6861 68.4179 92.5468 67.3873C92.4354 66.3566 92.1986 65.3956 91.8365 64.5043C91.4743 63.6129 90.973 62.9026 90.3323 62.3733C89.6916 61.8162 88.8559 61.5237 87.8253 61.4959ZM115.13 59.9499C116.383 59.9499 117.4 60.3538 118.18 61.1616C118.988 61.9416 119.545 62.9861 119.851 64.2953C120.186 65.5767 120.297 66.9694 120.186 68.4736C120.074 69.9778 119.74 71.4542 119.183 72.9026C118.765 74.0169 118.208 75.1032 117.511 76.1617C116.843 77.1924 116.063 78.1394 115.172 79.003C114.308 79.8386 113.375 80.5071 112.372 81.0085C111.369 81.5099 110.325 81.7606 109.238 81.7606C108.096 81.7606 107.177 81.5239 106.481 81.0503C105.784 80.5489 105.283 79.8943 104.977 79.0865C104.67 78.2509 104.503 77.3595 104.475 76.4124C104.447 75.2425 104.475 74.0586 104.559 72.8609C104.642 71.6631 104.74 70.5071 104.851 69.3929C104.963 68.2508 105.06 67.2201 105.144 66.3009C105.255 65.3538 105.311 64.5739 105.311 63.9611C105.311 63.4597 105.241 63.0279 105.102 62.6658C104.963 62.2758 104.642 62.0808 104.141 62.0808C103.695 62.0808 103.208 62.3872 102.679 63.0001C102.149 63.6129 101.69 64.6714 101.3 66.1756L100.13 65.8831C100.213 65.3817 100.367 64.8107 100.589 64.17C100.84 63.5015 101.174 62.8469 101.592 62.2062C102.01 61.5655 102.525 61.0363 103.138 60.6184C103.751 60.2006 104.475 59.9778 105.311 59.9499C106.063 59.922 106.69 60.0613 107.191 60.3677C107.692 60.6741 108.069 61.1338 108.319 61.7466C108.598 62.3315 108.751 63.0558 108.779 63.9193C108.779 64.7549 108.737 65.7438 108.653 66.8859C108.598 68.0001 108.514 69.1561 108.403 70.3539C108.319 71.5238 108.236 72.638 108.152 73.6965C108.069 74.7272 108.013 75.6046 107.985 76.3288C107.985 76.7745 108.013 77.2481 108.069 77.7495C108.124 78.2509 108.291 78.6687 108.57 79.003C108.848 79.3372 109.322 79.5044 109.991 79.5044C110.687 79.5044 111.411 79.2954 112.163 78.8776C112.915 78.4598 113.64 77.9027 114.336 77.2063C115.06 76.5099 115.701 75.716 116.258 74.8247C116.843 73.9054 117.289 72.9444 117.595 71.9416C117.762 71.3845 117.915 70.6603 118.055 69.7689C118.194 68.8497 118.236 67.9165 118.18 66.9694C118.152 65.9945 117.985 65.1171 117.679 64.3371C117.372 63.5572 116.871 63.0279 116.174 62.7494C116.007 63.1115 115.771 63.3761 115.464 63.5432C115.186 63.7104 114.865 63.7939 114.503 63.7939C114.141 63.7939 113.765 63.6547 113.375 63.3761C112.985 63.0976 112.776 62.6519 112.748 62.0391C112.748 61.7605 112.818 61.468 112.957 61.1616C113.124 60.8273 113.375 60.5488 113.709 60.3259C114.071 60.0752 114.545 59.9499 115.13 59.9499ZM137.374 59.9499C138.209 59.9499 139.129 60.0195 140.131 60.1588C141.134 60.2702 142.081 60.4374 142.973 60.6602C142.75 62.3315 142.527 64.0029 142.304 65.6742C142.109 67.3176 141.914 68.8915 141.719 70.3957C141.552 71.872 141.413 73.209 141.301 74.4068C141.19 75.5768 141.134 76.496 141.134 77.1645C141.134 77.7216 141.176 78.2787 141.26 78.8358C141.343 79.3929 141.691 79.6715 142.304 79.6715C142.778 79.6715 143.293 79.3651 143.85 78.7523C144.435 78.1394 144.936 77.0949 145.354 75.6185L146.524 75.8692C146.441 76.3706 146.26 76.9556 145.981 77.6241C145.73 78.2648 145.382 78.9055 144.936 79.5461C144.491 80.1868 143.948 80.7161 143.307 81.1339C142.666 81.5517 141.928 81.7606 141.092 81.7606C139.978 81.7606 139.184 81.4124 138.711 80.7161C138.237 80.0197 138.001 79.1144 138.001 78.0002C138.001 77.1924 138.07 76.3149 138.209 75.3678C138.377 74.4208 138.558 73.4319 138.753 72.4012H138.627C137.959 74.4625 137.262 76.1199 136.538 77.3734C135.842 78.5991 135.131 79.5322 134.407 80.1729C133.711 80.8136 133.028 81.2314 132.36 81.4264C131.691 81.6492 131.065 81.7606 130.48 81.7606C128.975 81.7606 127.708 81.2035 126.677 80.0893C125.675 78.9751 125.173 77.1088 125.173 74.4904C125.173 72.5405 125.424 70.6881 125.925 68.9333C126.427 67.1784 127.179 65.6324 128.181 64.2953C129.212 62.9304 130.493 61.8719 132.026 61.1198C133.558 60.3399 135.34 59.9499 137.374 59.9499ZM136.078 61.4541C134.825 61.4541 133.725 61.8023 132.778 62.4987C131.858 63.195 131.092 64.1421 130.48 65.3399C129.867 66.5098 129.407 67.833 129.101 69.3093C128.822 70.7578 128.683 72.248 128.683 73.7801C128.683 75.5628 128.878 77.0392 129.268 78.2091C129.658 79.3512 130.368 79.9222 131.399 79.9222C132.151 79.9222 132.903 79.5461 133.655 78.794C134.435 78.0419 135.159 77.0392 135.828 75.7857C136.496 74.5043 137.095 73.0837 137.624 71.5238C138.154 69.936 138.572 68.3204 138.878 66.677C139.184 65.0335 139.338 63.4597 139.338 61.9555C138.92 61.7884 138.432 61.663 137.875 61.5794C137.318 61.4959 136.719 61.4541 136.078 61.4541ZM152.409 81.301C152.382 81.106 152.368 80.9389 152.368 80.7996C152.368 80.6325 152.368 80.4375 152.368 80.2147C152.368 79.7411 152.382 79.184 152.409 78.5433C152.437 77.8748 152.493 76.9974 152.577 75.911C152.688 74.8247 152.841 73.404 153.036 71.6491C153.231 69.8386 153.384 68.4736 153.496 67.5544C153.607 66.6352 153.691 65.9667 153.747 65.5488C153.802 65.1031 153.83 64.741 153.83 64.4625C153.858 63.9054 153.816 63.3622 153.705 62.8329C153.621 62.3037 153.287 62.0391 152.702 62.0391C152.256 62.0391 151.741 62.3455 151.156 62.9583C150.571 63.5711 150.07 64.6157 149.652 66.092L148.482 65.8413C148.565 65.3399 148.733 64.7689 148.983 64.1282C149.262 63.4597 149.624 62.8051 150.07 62.1644C150.515 61.5237 151.058 60.9945 151.699 60.5766C152.34 60.1588 153.078 59.9499 153.914 59.9499C155.167 59.9499 156.003 60.3817 156.421 61.2452C156.838 62.1087 157.02 63.2647 156.964 64.7132C156.936 65.326 156.852 66.0084 156.713 66.7605C156.602 67.4848 156.476 68.2508 156.337 69.0586H156.462C157.27 66.6352 158.106 64.7689 158.969 63.4597C159.861 62.1505 160.752 61.2452 161.643 60.7438C162.563 60.2145 163.468 59.9499 164.359 59.9499C165.195 59.9499 165.891 60.1727 166.449 60.6184C167.006 61.0363 167.284 61.6212 167.284 62.3733C167.284 62.8747 167.103 63.3343 166.741 63.7522C166.407 64.17 165.947 64.3789 165.362 64.3789C164.861 64.3789 164.429 64.2257 164.067 63.9193C163.705 63.6129 163.496 63.1811 163.44 62.624C162.66 62.4569 161.894 62.7076 161.142 63.3761C160.418 64.0446 159.721 65.0056 159.053 66.2591C158.412 67.4848 157.841 68.8636 157.34 70.3957C156.866 71.9277 156.49 73.4876 156.212 75.0754C155.933 76.6631 155.794 78.1394 155.794 79.5044C155.794 79.9222 155.794 80.2425 155.794 80.4654C155.822 80.6604 155.85 80.9389 155.877 81.301H152.409Z" fill="white"/>
<path d="M166.598 24.5852L183.458 3.97852C198.623 48.0955 196.343 62.6795 177.838 75.1652" stroke="white" stroke-width="3.74667"/>
<path d="M145.991 56.432C137.644 39.7546 137.488 32.6241 136.624 14.282C169.579 29.3883 181.584 37.6987 183.458 65.7987" stroke="white" stroke-width="3.74667"/>
<path d="M202.191 63.925C202.191 65.1948 200.067 76.7671 190.277 80.0118C180.487 83.2564 165.923 78.1384 164.987 77.2018C164.987 77.2018 167.281 77.2744 172.48 77.2018C176.311 77.2438 180.415 77.5511 184.282 76.8938C189.985 75.9246 194.995 72.326 199.02 68.1714C201.898 65.2009 202.191 63.3079 202.191 63.925Z" fill="white"/>
<path d="M205.096 54.5527C204.72 54.4846 201.031 54.6095 198.853 57.8726C196.675 61.1357 196.41 69.166 196.571 69.5452C196.571 69.5452 196.803 66.0931 197.471 64.2718C198.273 61.9444 198.941 59.2886 201.026 57.5668C203.854 54.5798 205.373 54.603 205.096 54.5527Z" fill="white"/>
<path d="M210.949 57.5104C210.663 57.3203 208.583 56.67 205.487 57.4945C204.341 57.7996 203.276 58.3737 202.433 59.2078C199.744 61.8701 197.492 66.3664 197.508 66.7351C197.508 66.7351 198.908 65.0599 200.196 63.5995C201.791 61.7115 203.377 59.4538 205.984 58.6832C209.752 57.0153 211.196 57.6747 210.949 57.5104Z" fill="white"/>
<path d="M5.40136 110.229C4.51299 110.229 3.7389 110.007 3.0791 109.562C2.4236 109.118 1.91473 108.51 1.55249 107.738C1.19024 106.966 1.00912 106.087 1.00912 105.099C1.00912 104.103 1.1924 103.217 1.55895 102.44C1.92983 101.664 2.44301 101.056 3.0985 100.616C3.754 100.172 4.51515 99.95 5.38195 99.95C6.04607 99.95 6.64766 100.079 7.18671 100.338C7.72577 100.593 8.16995 100.953 8.51926 101.418C8.87289 101.88 9.09498 102.419 9.18554 103.036H8.02117C7.90043 102.475 7.60933 101.996 7.1479 101.599C6.69078 101.198 6.1086 100.998 5.40136 100.998C4.76742 100.998 4.2068 101.17 3.7195 101.515C3.23219 101.856 2.85054 102.333 2.57454 102.945C2.30285 103.553 2.16701 104.258 2.16701 105.06C2.16701 105.867 2.3007 106.58 2.56807 107.201C2.83544 107.818 3.21063 108.301 3.69362 108.65C4.18093 109 4.75017 109.174 5.40136 109.174C5.84123 109.174 6.24229 109.092 6.60453 108.929C6.97109 108.76 7.27728 108.523 7.52309 108.217C7.77321 107.911 7.94139 107.546 8.02764 107.124H9.19201C9.10576 107.723 8.89229 108.258 8.55161 108.728C8.21524 109.194 7.77752 109.56 7.23846 109.828C6.70372 110.095 6.09135 110.229 5.40136 110.229ZM17.8628 110.229C16.9356 110.229 16.1335 110.013 15.4564 109.582C14.7794 109.146 14.2554 108.545 13.8845 107.777C13.518 107.005 13.3347 106.117 13.3347 105.112C13.3347 104.112 13.518 103.223 13.8845 102.447C14.2554 101.666 14.7664 101.056 15.4176 100.616C16.0731 100.172 16.8299 99.95 17.6881 99.95C18.2272 99.95 18.7468 100.049 19.2471 100.248C19.7473 100.442 20.1958 100.741 20.5926 101.147C20.9936 101.548 21.3106 102.054 21.5435 102.667C21.7763 103.275 21.8928 103.995 21.8928 104.827V105.397H14.1303V104.381H20.7155C20.7155 103.743 20.5861 103.169 20.3273 102.66C20.0729 102.147 19.7171 101.742 19.26 101.444C18.8072 101.147 18.2832 100.998 17.6881 100.998C17.0585 100.998 16.5043 101.166 16.0257 101.502C15.547 101.839 15.1718 102.283 14.9001 102.835C14.6327 103.387 14.4969 103.991 14.4926 104.646V105.254C14.4926 106.043 14.6284 106.733 14.9001 107.324C15.1761 107.911 15.5664 108.366 16.0709 108.689C16.5755 109.013 17.1728 109.174 17.8628 109.174C18.3328 109.174 18.7447 109.101 19.0983 108.954C19.4562 108.808 19.7559 108.612 19.9974 108.366C20.2432 108.116 20.4287 107.842 20.5537 107.544L21.6469 107.9C21.496 108.318 21.248 108.704 20.9031 109.058C20.5624 109.412 20.1354 109.696 19.6223 109.912C19.1134 110.123 18.5269 110.229 17.8628 110.229ZM27.7674 103.812V110.022H26.616V100.086H27.7351V101.645H27.8386C28.0715 101.136 28.4337 100.728 28.9253 100.422C29.4213 100.112 30.0336 99.9564 30.7624 99.9564C31.4309 99.9564 32.0174 100.097 32.5219 100.377C33.0308 100.653 33.4254 101.06 33.7057 101.599C33.9903 102.139 34.1326 102.801 34.1326 103.585V110.022H32.9812V103.657C32.9812 102.841 32.7526 102.197 32.2955 101.722C31.8427 101.248 31.2346 101.011 30.4713 101.011C29.9495 101.011 29.4859 101.123 29.0806 101.347C28.6752 101.571 28.3539 101.895 28.1167 102.318C27.8839 102.736 27.7674 103.234 27.7674 103.812ZM43.2643 100.086V101.088H38.5227V100.086H43.2643ZM40.0041 97.7053H41.1619V107.428C41.1619 107.842 41.2331 108.167 41.3754 108.405C41.5177 108.637 41.7032 108.803 41.9317 108.903C42.1603 108.998 42.4039 109.045 42.6627 109.045C42.8136 109.045 42.943 109.036 43.0508 109.019C43.1586 108.998 43.2535 108.976 43.3354 108.954L43.5812 109.996C43.4691 110.039 43.3311 110.078 43.1672 110.112C43.0034 110.151 42.8007 110.171 42.5592 110.171C42.1366 110.171 41.729 110.078 41.3366 109.892C40.9485 109.707 40.6294 109.431 40.3792 109.064C40.1291 108.698 40.0041 108.243 40.0041 107.699V97.7053ZM48.0651 110.022V100.086H49.1842V101.612H49.2683C49.4667 101.112 49.8117 100.709 50.3033 100.403C50.7992 100.092 51.3599 99.937 51.9852 99.937C52.08 99.937 52.1857 99.9392 52.3021 99.9435C52.4186 99.9478 52.5156 99.9521 52.5932 99.9564V101.127C52.5415 101.119 52.4509 101.106 52.3215 101.088C52.1922 101.071 52.052 101.063 51.9011 101.063C51.3836 101.063 50.9221 101.173 50.5168 101.392C50.1157 101.608 49.7987 101.908 49.5659 102.292C49.333 102.675 49.2166 103.113 49.2166 103.605V110.022H48.0651ZM60.3034 110.229C59.4452 110.229 58.6862 110.011 58.0264 109.575C57.3709 109.14 56.8577 108.538 56.4869 107.771C56.116 106.999 55.9305 106.108 55.9305 105.099C55.9305 104.081 56.116 103.186 56.4869 102.415C56.8577 101.638 57.3709 101.035 58.0264 100.603C58.6862 100.168 59.4452 99.95 60.3034 99.95C61.1616 99.95 61.9184 100.168 62.5739 100.603C63.2294 101.039 63.7426 101.643 64.1134 102.415C64.4886 103.186 64.6762 104.081 64.6762 105.099C64.6762 106.108 64.4908 106.999 64.1199 107.771C63.749 108.538 63.2337 109.14 62.5739 109.575C61.9184 110.011 61.1616 110.229 60.3034 110.229ZM60.3034 109.174C60.9934 109.174 61.5777 108.989 62.0564 108.618C62.5351 108.247 62.8973 107.753 63.1431 107.137C63.3933 106.52 63.5183 105.841 63.5183 105.099C63.5183 104.357 63.3933 103.676 63.1431 103.055C62.8973 102.434 62.5351 101.936 62.0564 101.561C61.5777 101.185 60.9934 100.998 60.3034 100.998C59.6177 100.998 59.0334 101.185 58.5504 101.561C58.0717 101.936 57.7073 102.434 57.4572 103.055C57.2113 103.676 57.0884 104.357 57.0884 105.099C57.0884 105.841 57.2113 106.52 57.4572 107.137C57.7073 107.753 58.0717 108.247 58.5504 108.618C59.0291 108.989 59.6134 109.174 60.3034 109.174ZM80.276 110.229C79.461 110.229 78.7473 110.013 78.1349 109.582C77.5225 109.151 77.0438 108.549 76.6989 107.777C76.3582 107.005 76.1878 106.106 76.1878 105.08C76.1878 104.058 76.3582 103.163 76.6989 102.395C77.0438 101.623 77.5247 101.024 78.1414 100.597C78.7581 100.166 79.4761 99.95 80.2954 99.95C80.8992 99.95 81.4016 100.058 81.8026 100.273C82.2037 100.485 82.525 100.748 82.7665 101.063C83.008 101.377 83.1956 101.684 83.3293 101.981H83.4328V96.7739H84.5907V110.022H83.4651V108.178H83.3293C83.1956 108.48 83.0058 108.791 82.76 109.11C82.5142 109.424 82.1886 109.69 81.7832 109.905C81.3822 110.121 80.8798 110.229 80.276 110.229ZM80.4119 109.174C81.0544 109.174 81.6021 109 82.0549 108.65C82.5077 108.297 82.8527 107.812 83.0899 107.195C83.3314 106.574 83.4522 105.862 83.4522 105.06C83.4522 104.267 83.3336 103.566 83.0964 102.958C82.8592 102.346 82.5142 101.867 82.0614 101.522C81.6086 101.173 81.0587 100.998 80.4119 100.998C79.7478 100.998 79.1871 101.179 78.73 101.541C78.2772 101.899 77.9322 102.384 77.695 102.997C77.4622 103.609 77.3457 104.297 77.3457 105.06C77.3457 105.832 77.4643 106.529 77.7015 107.15C77.9387 107.771 78.2837 108.264 78.7365 108.631C79.1936 108.993 79.7521 109.174 80.4119 109.174ZM94.0732 110.229C93.1461 110.229 92.3439 110.013 91.6669 109.582C90.9898 109.146 90.4659 108.545 90.095 107.777C89.7284 107.005 89.5452 106.117 89.5452 105.112C89.5452 104.112 89.7284 103.223 90.095 102.447C90.4659 101.666 90.9769 101.056 91.6281 100.616C92.2836 100.172 93.0404 99.95 93.8986 99.95C94.4376 99.95 94.9573 100.049 95.4575 100.248C95.9578 100.442 96.4063 100.741 96.803 101.147C97.2041 101.548 97.5211 102.054 97.7539 102.667C97.9868 103.275 98.1032 103.995 98.1032 104.827V105.397H90.3408V104.381H96.9259C96.9259 103.743 96.7966 103.169 96.5378 102.66C96.2834 102.147 95.9276 101.742 95.4705 101.444C95.0177 101.147 94.4937 100.998 93.8986 100.998C93.269 100.998 92.7148 101.166 92.2361 101.502C91.7574 101.839 91.3823 102.283 91.1106 102.835C90.8432 103.387 90.7074 103.991 90.7031 104.646V105.254C90.7031 106.043 90.8389 106.733 91.1106 107.324C91.3866 107.911 91.7769 108.366 92.2814 108.689C92.786 109.013 93.3832 109.174 94.0732 109.174C94.5433 109.174 94.9551 109.101 95.3088 108.954C95.6667 108.808 95.9664 108.612 96.2079 108.366C96.4537 108.116 96.6392 107.842 96.7642 107.544L97.8574 107.9C97.7065 108.318 97.4585 108.704 97.1135 109.058C96.7728 109.412 96.3459 109.696 95.8327 109.912C95.3239 110.123 94.7374 110.229 94.0732 110.229ZM114.153 110.229C113.225 110.229 112.423 110.013 111.746 109.582C111.069 109.146 110.545 108.545 110.174 107.777C109.808 107.005 109.625 106.117 109.625 105.112C109.625 104.112 109.808 103.223 110.174 102.447C110.545 101.666 111.056 101.056 111.707 100.616C112.363 100.172 113.12 99.95 113.978 99.95C114.517 99.95 115.037 100.049 115.537 100.248C116.037 100.442 116.486 100.741 116.882 101.147C117.283 101.548 117.6 102.054 117.833 102.667C118.066 103.275 118.183 103.995 118.183 104.827V105.397H110.42V104.381H117.005C117.005 103.743 116.876 103.169 116.617 102.66C116.363 102.147 116.007 101.742 115.55 101.444C115.097 101.147 114.573 100.998 113.978 100.998C113.348 100.998 112.794 101.166 112.316 101.502C111.837 101.839 111.462 102.283 111.19 102.835C110.923 103.387 110.787 103.991 110.782 104.646V105.254C110.782 106.043 110.918 106.733 111.19 107.324C111.466 107.911 111.856 108.366 112.361 108.689C112.865 109.013 113.463 109.174 114.153 109.174C114.623 109.174 115.035 109.101 115.388 108.954C115.746 108.808 116.046 108.612 116.287 108.366C116.533 108.116 116.719 107.842 116.844 107.544L117.937 107.9C117.786 108.318 117.538 108.704 117.193 109.058C116.852 109.412 116.425 109.696 115.912 109.912C115.403 110.123 114.817 110.229 114.153 110.229ZM129.582 102.266L128.527 102.563C128.424 102.266 128.277 101.996 128.087 101.755C127.898 101.513 127.65 101.321 127.343 101.179C127.042 101.037 126.666 100.966 126.218 100.966C125.545 100.966 124.993 101.125 124.562 101.444C124.131 101.763 123.915 102.175 123.915 102.68C123.915 103.107 124.062 103.454 124.355 103.721C124.652 103.984 125.11 104.193 125.726 104.349L127.227 104.717C128.059 104.92 128.682 105.241 129.096 105.681C129.515 106.121 129.724 106.673 129.724 107.337C129.724 107.898 129.569 108.396 129.258 108.831C128.948 109.267 128.514 109.61 127.958 109.86C127.406 110.106 126.766 110.229 126.037 110.229C125.066 110.229 124.266 110.011 123.637 109.575C123.007 109.136 122.604 108.502 122.427 107.674L123.533 107.402C123.676 107.993 123.954 108.439 124.368 108.741C124.786 109.043 125.336 109.194 126.017 109.194C126.781 109.194 127.391 109.023 127.848 108.683C128.305 108.338 128.534 107.906 128.534 107.389C128.534 106.988 128.4 106.652 128.133 106.38C127.865 106.104 127.46 105.901 126.916 105.772L125.293 105.384C124.43 105.177 123.792 104.849 123.378 104.4C122.964 103.952 122.757 103.396 122.757 102.732C122.757 102.184 122.906 101.703 123.203 101.289C123.501 100.871 123.911 100.543 124.432 100.306C124.954 100.069 125.549 99.95 126.218 99.95C127.128 99.95 127.854 100.157 128.398 100.571C128.945 100.981 129.34 101.546 129.582 102.266ZM138.344 100.086V101.088H133.603V100.086H138.344ZM135.084 97.7053H136.242V107.428C136.242 107.842 136.313 108.167 136.456 108.405C136.598 108.637 136.783 108.803 137.012 108.903C137.241 108.998 137.484 109.045 137.743 109.045C137.894 109.045 138.023 109.036 138.131 109.019C138.239 108.998 138.334 108.976 138.416 108.954L138.661 109.996C138.549 110.039 138.411 110.078 138.247 110.112C138.084 110.151 137.881 110.171 137.639 110.171C137.217 110.171 136.809 110.078 136.417 109.892C136.029 109.707 135.71 109.431 135.459 109.064C135.209 108.698 135.084 108.243 135.084 107.699V97.7053ZM147.056 110.229C146.128 110.229 145.326 110.013 144.649 109.582C143.972 109.146 143.448 108.545 143.077 107.777C142.711 107.005 142.528 106.117 142.528 105.112C142.528 104.112 142.711 103.223 143.077 102.447C143.448 101.666 143.959 101.056 144.611 100.616C145.266 100.172 146.023 99.95 146.881 99.95C147.42 99.95 147.94 100.049 148.44 100.248C148.94 100.442 149.389 100.741 149.785 101.147C150.187 101.548 150.503 102.054 150.736 102.667C150.969 103.275 151.086 103.995 151.086 104.827V105.397H143.323V104.381H149.908C149.908 103.743 149.779 103.169 149.52 102.66C149.266 102.147 148.91 101.742 148.453 101.444C148 101.147 147.476 100.998 146.881 100.998C146.251 100.998 145.697 101.166 145.219 101.502C144.74 101.839 144.365 102.283 144.093 102.835C143.826 103.387 143.69 103.991 143.685 104.646V105.254C143.685 106.043 143.821 106.733 144.093 107.324C144.369 107.911 144.759 108.366 145.264 108.689C145.768 109.013 146.366 109.174 147.056 109.174C147.526 109.174 147.938 109.101 148.291 108.954C148.649 108.808 148.949 108.612 149.19 108.366C149.436 108.116 149.622 107.842 149.747 107.544L150.84 107.9C150.689 108.318 150.441 108.704 150.096 109.058C149.755 109.412 149.328 109.696 148.815 109.912C148.306 110.123 147.72 110.229 147.056 110.229ZM146.286 98.708L147.942 95.7712H149.307L147.321 98.708H146.286ZM159.722 100.086V101.088H154.981V100.086H159.722ZM156.462 97.7053H157.62V107.428C157.62 107.842 157.691 108.167 157.834 108.405C157.976 108.637 158.161 108.803 158.39 108.903C158.618 108.998 158.862 109.045 159.121 109.045C159.272 109.045 159.401 109.036 159.509 109.019C159.617 108.998 159.712 108.976 159.794 108.954L160.039 109.996C159.927 110.039 159.789 110.078 159.625 110.112C159.462 110.151 159.259 110.171 159.017 110.171C158.595 110.171 158.187 110.078 157.795 109.892C157.407 109.707 157.088 109.431 156.837 109.064C156.587 108.698 156.462 108.243 156.462 107.699V97.7053ZM164.536 110.022V100.086H165.694V110.022H164.536ZM165.125 98.3781C164.888 98.3781 164.685 98.2983 164.517 98.1387C164.349 97.9749 164.265 97.7787 164.265 97.5501C164.265 97.3215 164.349 97.1275 164.517 96.9679C164.685 96.804 164.888 96.7221 165.125 96.7221C165.362 96.7221 165.565 96.804 165.733 96.9679C165.901 97.1275 165.985 97.3215 165.985 97.5501C165.985 97.7787 165.901 97.9749 165.733 98.1387C165.565 98.2983 165.362 98.3781 165.125 98.3781ZM174.806 110.229C173.918 110.229 173.144 110.007 172.484 109.562C171.829 109.118 171.32 108.51 170.958 107.738C170.595 106.966 170.414 106.087 170.414 105.099C170.414 104.103 170.597 103.217 170.964 102.44C171.335 101.664 171.848 101.056 172.504 100.616C173.159 100.172 173.92 99.95 174.787 99.95C175.451 99.95 176.053 100.079 176.592 100.338C177.131 100.593 177.575 100.953 177.924 101.418C178.278 101.88 178.5 102.419 178.591 103.036H177.426C177.305 102.475 177.014 101.996 176.553 101.599C176.096 101.198 175.514 100.998 174.806 100.998C174.172 100.998 173.612 101.17 173.125 101.515C172.637 101.856 172.256 102.333 171.98 102.945C171.708 103.553 171.572 104.258 171.572 105.06C171.572 105.867 171.706 106.58 171.973 107.201C172.241 107.818 172.616 108.301 173.099 108.65C173.586 109 174.155 109.174 174.806 109.174C175.246 109.174 175.647 109.092 176.01 108.929C176.376 108.76 176.682 108.523 176.928 108.217C177.178 107.911 177.346 107.546 177.433 107.124H178.597C178.511 107.723 178.297 108.258 177.957 108.728C177.62 109.194 177.183 109.56 176.644 109.828C176.109 110.095 175.496 110.229 174.806 110.229ZM186.026 110.248C185.426 110.248 184.879 110.132 184.383 109.899C183.887 109.662 183.492 109.321 183.199 108.877C182.906 108.428 182.759 107.885 182.759 107.247C182.759 106.755 182.852 106.341 183.037 106.005C183.223 105.668 183.486 105.392 183.826 105.177C184.167 104.961 184.57 104.791 185.036 104.666C185.502 104.541 186.015 104.444 186.576 104.375C187.132 104.306 187.602 104.245 187.986 104.193C188.374 104.142 188.669 104.06 188.872 103.948C189.075 103.836 189.176 103.654 189.176 103.404V103.171C189.176 102.494 188.973 101.962 188.568 101.574C188.167 101.181 187.589 100.985 186.834 100.985C186.119 100.985 185.534 101.142 185.081 101.457C184.633 101.772 184.318 102.143 184.137 102.57L183.044 102.175C183.268 101.632 183.579 101.198 183.975 100.875C184.372 100.547 184.816 100.312 185.308 100.17C185.799 100.023 186.298 99.95 186.802 99.95C187.182 99.95 187.576 99.9996 187.986 100.099C188.4 100.198 188.784 100.37 189.137 100.616C189.491 100.858 189.778 101.196 189.998 101.632C190.218 102.063 190.328 102.611 190.328 103.275V110.022H189.176V108.45H189.105C188.967 108.743 188.762 109.028 188.49 109.304C188.219 109.58 187.878 109.806 187.468 109.983C187.059 110.16 186.578 110.248 186.026 110.248ZM186.181 109.194C186.793 109.194 187.324 109.058 187.772 108.786C188.221 108.515 188.566 108.154 188.807 107.706C189.053 107.253 189.176 106.755 189.176 106.212V104.776C189.09 104.858 188.945 104.931 188.743 104.996C188.544 105.06 188.314 105.118 188.051 105.17C187.792 105.218 187.533 105.259 187.274 105.293C187.016 105.328 186.783 105.358 186.576 105.384C186.015 105.453 185.536 105.56 185.14 105.707C184.743 105.854 184.439 106.056 184.228 106.315C184.016 106.57 183.911 106.897 183.911 107.298C183.911 107.902 184.126 108.37 184.557 108.702C184.989 109.03 185.53 109.194 186.181 109.194Z" fill="white"/>
</svg>
