<svg width="139" height="76" viewBox="0 0 139 76" fill="none" xmlns="http://www.w3.org/2000/svg">
<path d="M8.34017 34.9465C10.1201 34.9649 11.5331 35.1942 12.5791 35.6347C13.6434 36.0751 14.3957 36.6714 14.8361 37.4238C15.2949 38.1578 15.4967 39.0111 15.4417 39.9837C15.405 40.681 15.2307 41.3966 14.9187 42.1306C14.6251 42.8463 14.1021 43.4977 13.3498 44.0849C12.5974 44.6721 11.5148 45.1125 10.1018 45.4061C10.3954 45.7364 10.6156 45.9842 10.7624 46.1493C10.9092 46.2961 11.0285 46.4246 11.1202 46.5347C11.212 46.6264 11.3129 46.7641 11.423 46.9476C11.5331 47.1311 11.6983 47.4155 11.9185 47.8008L13.625 50.746C13.9186 51.2415 14.1939 51.6911 14.4508 52.0948C14.726 52.4801 15.0472 52.7921 15.4142 53.0306C15.7995 53.2509 16.2766 53.361 16.8455 53.361L16.7904 54.2693H13.4324C13.0286 53.9206 12.6341 53.4802 12.2488 52.9481C11.8818 52.3976 11.5148 51.8195 11.1478 51.214L9.46871 48.2688C9.2485 47.8651 9.00078 47.4155 8.72552 46.92C8.45027 46.4246 8.12914 46.0025 7.76214 45.6539C7.59699 45.6722 7.35843 45.6814 7.04648 45.6814C6.75288 45.6814 6.47762 45.6814 6.22072 45.6814C5.96382 45.663 5.80784 45.6539 5.75279 45.6539L5.47754 50.9938C5.45919 51.4892 5.43166 51.9205 5.39496 52.2875C5.35826 52.6361 5.32156 52.9297 5.28486 53.1683C5.50506 53.1499 5.72526 53.1407 5.94547 53.1407C6.16567 53.1224 6.38587 53.104 6.60607 53.0857C6.82628 53.0673 7.04648 53.0582 7.26668 53.0582L7.21163 54.2693H1.12854L1.18359 53.361C1.8809 53.3243 2.36718 53.1683 2.64243 52.893C2.91768 52.5994 3.08283 52.2049 3.13789 51.7094C3.19294 51.1956 3.22964 50.6176 3.24799 49.9753L3.88107 38.0844C3.89942 37.7174 3.92694 37.3687 3.96364 37.0384C4.00035 36.6898 4.03705 36.3778 4.07375 36.1026C3.74344 36.1209 3.40396 36.1393 3.05531 36.1576C2.72501 36.176 2.3947 36.1943 2.0644 36.2127L2.14697 35.0016C3.17459 34.9832 4.19302 34.9649 5.20228 34.9465C6.2299 34.9282 7.27586 34.9282 8.34017 34.9465ZM8.17502 35.9925C7.53276 35.9925 7.074 36.1209 6.79875 36.3778C6.5235 36.6347 6.34917 37.0017 6.27577 37.4788C6.20237 37.9376 6.14732 38.4973 6.11062 39.1579L5.80784 44.5804C6.10144 44.5987 6.3767 44.6171 6.6336 44.6354C6.90885 44.6538 7.20246 44.6538 7.51441 44.6354C8.52367 44.5987 9.42283 44.4336 10.2119 44.14C11.0009 43.8464 11.6249 43.3784 12.0836 42.7362C12.5607 42.0939 12.8268 41.2498 12.8818 40.2039C12.9185 39.5065 12.8451 38.901 12.6616 38.3872C12.4965 37.855 12.2212 37.4146 11.8359 37.066C11.4689 36.699 10.9734 36.4329 10.3495 36.2677C9.74396 36.0842 9.01913 35.9925 8.17502 35.9925ZM25.9052 40.2039C26.5658 40.2039 27.1897 40.3048 27.7769 40.5066C28.3641 40.7085 28.8412 41.0388 29.2082 41.4975C29.5752 41.9563 29.7587 42.5802 29.7587 43.3693C29.7587 44.1216 29.5018 44.7731 28.988 45.3236C28.4742 45.8741 27.8044 46.3328 26.9787 46.6998C26.1529 47.0485 25.2721 47.3329 24.3362 47.5531C23.4004 47.7733 22.5012 47.9293 21.6388 48.021C21.6388 49.1588 21.7489 50.113 21.9691 50.8837C22.2076 51.6544 22.5563 52.2324 23.015 52.6178C23.4738 53.0031 24.061 53.1958 24.7766 53.1958C25.3088 53.1958 25.841 53.0765 26.3731 52.838C26.9236 52.5994 27.4466 52.2416 27.9421 51.7645C28.4375 51.269 28.8871 50.6359 29.2908 49.8652L30.1991 50.3882C29.6853 51.3424 29.1348 52.1315 28.5476 52.7554C27.9604 53.3793 27.3182 53.8381 26.6208 54.1317C25.9235 54.4253 25.1528 54.5721 24.3087 54.5721C22.5654 54.5721 21.2809 54.0307 20.4552 52.9481C19.6294 51.8471 19.2165 50.4066 19.2165 48.6266C19.2165 47.5623 19.3542 46.5255 19.6294 45.5162C19.9047 44.507 20.3175 43.6078 20.8681 42.8188C21.4186 42.0113 22.1159 41.3783 22.96 40.9195C23.8041 40.4424 24.7858 40.2039 25.9052 40.2039ZM25.5198 41.1397C24.6757 41.1397 23.9784 41.4241 23.4279 41.993C22.8958 42.5619 22.4829 43.2959 22.1893 44.195C21.914 45.0942 21.7397 46.0392 21.6663 47.0301C22.6388 46.9017 23.5655 46.6723 24.4463 46.342C25.3272 46.0117 26.052 45.5896 26.6208 45.0758C27.1897 44.5437 27.4741 43.9289 27.4741 43.2316C27.4741 42.6444 27.309 42.149 26.9787 41.7453C26.6667 41.3416 26.1804 41.1397 25.5198 41.1397ZM45.3811 54.5721C44.5186 54.5721 43.9314 54.3427 43.6194 53.8839C43.3075 53.4252 43.1515 52.7737 43.1515 51.9296C43.1515 51.4158 43.1882 50.8103 43.2616 50.113C43.3534 49.4157 43.4543 48.6725 43.5644 47.8834C43.6928 47.0944 43.7938 46.2961 43.8672 45.4887C43.9589 44.6813 44.0048 43.9106 44.0048 43.1766C44.0048 42.9564 43.9681 42.7178 43.8947 42.4609C43.8396 42.204 43.7204 41.9838 43.5369 41.8003C43.3534 41.5985 43.0781 41.4975 42.7111 41.4975C42.1973 41.4975 41.6835 41.7361 41.1697 42.2132C40.6559 42.6903 40.1696 43.3326 39.7108 44.14C39.2521 44.9474 38.8392 45.8465 38.4722 46.8375C38.1052 47.81 37.8116 48.8193 37.5914 49.8652C37.3895 50.8928 37.2886 51.8746 37.2886 52.8104C37.2886 53.0857 37.2886 53.3426 37.2886 53.5812C37.307 53.8014 37.3253 54.0307 37.3437 54.2693H35.0315C35.0132 54.1408 35.004 54.0307 35.004 53.939C35.004 53.8289 35.004 53.7004 35.004 53.5536C35.004 53.2417 35.0224 52.8838 35.0591 52.4801C35.0958 52.0581 35.1508 51.5076 35.2242 50.8286C35.316 50.1313 35.4261 49.2046 35.5545 48.0486C35.683 46.9659 35.7747 46.1218 35.8298 45.5162C35.9032 44.9107 35.9582 44.4519 35.9949 44.14C36.0316 43.8097 36.05 43.5619 36.05 43.3968C36.0683 43.2133 36.0775 43.0206 36.0775 42.8188C36.0775 42.4885 36.0316 42.204 35.9399 41.9655C35.8481 41.7086 35.6463 41.5801 35.3343 41.5801C35.0407 41.5801 34.7012 41.782 34.3159 42.1857C33.9305 42.5894 33.6002 43.2775 33.325 44.2501L32.5543 44.0849C32.6093 43.7546 32.7194 43.3784 32.8846 42.9564C33.0681 42.516 33.3066 42.0847 33.6002 41.6627C33.8938 41.2406 34.2517 40.892 34.6737 40.6167C35.0958 40.3415 35.5821 40.2039 36.1326 40.2039C36.7565 40.2039 37.2152 40.3782 37.5088 40.7268C37.8208 41.0571 38.0135 41.4884 38.0869 42.0205C38.1786 42.5527 38.2061 43.1215 38.1694 43.7271C38.1327 44.2409 38.0685 44.7364 37.9768 45.2135C37.9034 45.6906 37.83 46.1126 37.7566 46.4796H37.8391C38.463 44.8098 39.0778 43.5252 39.6833 42.6261C40.2889 41.7086 40.8853 41.0755 41.4725 40.7268C42.078 40.3782 42.6744 40.2039 43.2616 40.2039C43.9956 40.2039 44.5828 40.369 45.0232 40.6993C45.4636 41.0296 45.7756 41.47 45.9591 42.0205C46.1609 42.5527 46.2619 43.1399 46.2619 43.7821C46.2619 44.7914 46.1885 45.8282 46.0417 46.8925C45.9132 47.9385 45.7756 48.911 45.6288 49.8102C45.5003 50.691 45.4361 51.3975 45.4361 51.9296C45.4361 52.2599 45.4728 52.5535 45.5462 52.8104C45.638 53.0673 45.849 53.1958 46.1793 53.1958C46.4913 53.1958 46.8307 53.0031 47.1977 52.6178C47.5831 52.2141 47.9134 51.5168 48.1886 50.5258L48.9594 50.7185C48.9043 51.0305 48.785 51.4067 48.6015 51.8471C48.4364 52.2875 48.207 52.7187 47.9134 53.1407C47.6198 53.5445 47.262 53.8839 46.8399 54.1592C46.4178 54.4344 45.9316 54.5721 45.3811 54.5721ZM58.2694 40.2039C59.2603 40.2039 60.1503 40.4424 60.9393 40.9195C61.7284 41.3783 62.3523 42.0572 62.811 42.9564C63.2698 43.8555 63.4992 44.9474 63.4992 46.2319C63.4992 47.6999 63.2331 49.0762 62.7009 50.3607C62.1688 51.6269 61.3981 52.6453 60.3888 53.416C59.3979 54.1867 58.1868 54.5721 56.7555 54.5721C55.5444 54.5721 54.5443 54.2968 53.7552 53.7463C52.9845 53.1958 52.4065 52.4526 52.0211 51.5168C51.6541 50.5809 51.4706 49.5441 51.4706 48.4064C51.4706 46.92 51.7367 45.5529 52.2688 44.3051C52.8193 43.0573 53.5992 42.0664 54.6085 41.3324C55.6361 40.58 56.8564 40.2039 58.2694 40.2039ZM57.8565 41.2223C57.0491 41.2039 56.3518 41.4792 55.7646 42.048C55.1774 42.5986 54.7186 43.3509 54.3883 44.3051C54.0763 45.2593 53.9112 46.3236 53.8928 47.4981C53.8745 48.122 53.9112 48.7826 54.0029 49.4799C54.0947 50.1772 54.2507 50.8286 54.4709 51.4342C54.7094 52.0397 55.0305 52.5352 55.4343 52.9205C55.8563 53.3059 56.3793 53.5078 57.0032 53.5261C57.7372 53.5445 58.3611 53.3518 58.8749 52.9481C59.3887 52.526 59.8016 51.9847 60.1136 51.3241C60.4255 50.6635 60.6549 49.957 60.8017 49.2046C60.9668 48.4523 61.0586 47.7458 61.0769 47.0852C61.0953 46.4429 61.0586 45.7823 60.9668 45.1034C60.8934 44.4244 60.7375 43.7913 60.4989 43.2041C60.2604 42.6169 59.9301 42.149 59.508 41.8003C59.0859 41.4333 58.5354 41.2406 57.8565 41.2223ZM75.8438 40.2039C76.6696 40.2039 77.3394 40.4699 77.8532 41.0021C78.3853 41.5159 78.7523 42.204 78.9542 43.0665C79.1744 43.9106 79.2478 44.8281 79.1744 45.819C79.101 46.8099 78.8808 47.7825 78.5138 48.7367C78.2385 49.4707 77.8715 50.1864 77.4128 50.8837C76.9724 51.5626 76.4586 52.1865 75.8714 52.7554C75.3025 53.3059 74.6878 53.7463 74.0272 54.0766C73.3666 54.4069 72.6784 54.5721 71.9628 54.5721C71.2104 54.5721 70.6049 54.4161 70.1461 54.1041C69.6873 53.7738 69.357 53.3426 69.1552 52.8104C68.9533 52.2599 68.8432 51.6727 68.8249 51.0488C68.8065 50.2781 68.8249 49.4982 68.8799 48.7092C68.935 47.9201 68.9992 47.1586 69.0726 46.4246C69.146 45.6722 69.2102 44.9933 69.2653 44.3877C69.3387 43.7638 69.3754 43.25 69.3754 42.8463C69.3754 42.516 69.3295 42.2316 69.2378 41.993C69.146 41.7361 68.935 41.6076 68.6047 41.6076C68.3111 41.6076 67.9899 41.8095 67.6413 42.2132C67.2926 42.6169 66.9899 43.3142 66.733 44.3051L65.9623 44.1124C66.0173 43.7821 66.1182 43.406 66.265 42.9839C66.4302 42.5435 66.6504 42.1123 66.9256 41.6902C67.2009 41.2682 67.5404 40.9195 67.9441 40.6443C68.3478 40.369 68.8249 40.2222 69.3754 40.2039C69.8708 40.1855 70.2837 40.2773 70.614 40.4791C70.9443 40.681 71.1921 40.9837 71.3572 41.3874C71.5407 41.7728 71.6416 42.2499 71.66 42.8188C71.66 43.3693 71.6325 44.0207 71.5774 44.7731C71.5407 45.5071 71.4857 46.2686 71.4123 47.0577C71.3572 47.8284 71.3022 48.5624 71.2471 49.2597C71.1921 49.9386 71.1554 50.5167 71.137 50.9938C71.137 51.2874 71.1554 51.5993 71.1921 51.9296C71.2288 52.2599 71.3389 52.5352 71.5224 52.7554C71.7059 52.9756 72.0178 53.0857 72.4582 53.0857C72.917 53.0857 73.3941 52.9481 73.8895 52.6728C74.385 52.3976 74.8621 52.0306 75.3209 51.5718C75.798 51.1131 76.22 50.5901 76.587 50.0029C76.9724 49.3973 77.266 48.7642 77.4678 48.1036C77.5779 47.7366 77.6789 47.2595 77.7706 46.6723C77.8624 46.0667 77.8899 45.452 77.8532 44.8281C77.8348 44.1858 77.7247 43.6078 77.5229 43.094C77.321 42.5802 76.9907 42.2316 76.532 42.048C76.4219 42.2866 76.2659 42.4609 76.064 42.571C75.8805 42.6811 75.6695 42.7362 75.431 42.7362C75.1924 42.7362 74.9447 42.6444 74.6878 42.4609C74.4309 42.2774 74.2932 41.9838 74.2749 41.5801C74.2749 41.3966 74.3208 41.2039 74.4125 41.0021C74.5226 40.7819 74.6878 40.5984 74.908 40.4516C75.1465 40.2864 75.4585 40.2039 75.8438 40.2039ZM90.4974 40.2039C91.0479 40.2039 91.6535 40.2497 92.3141 40.3415C92.9747 40.4149 93.5986 40.525 94.1858 40.6718C94.039 41.7728 93.8922 42.8738 93.7454 43.9748C93.6169 45.0575 93.4885 46.0943 93.36 47.0852C93.2499 48.0577 93.1582 48.9386 93.0848 49.7276C93.0114 50.4983 92.9747 51.1039 92.9747 51.5443C92.9747 51.9113 93.0022 52.2783 93.0573 52.6453C93.1123 53.0123 93.3417 53.1958 93.7454 53.1958C94.0573 53.1958 94.3968 52.9939 94.7638 52.5902C95.1492 52.1865 95.4795 51.4984 95.7547 50.5258L96.5255 50.691C96.4704 51.0213 96.3511 51.4067 96.1676 51.8471C96.0025 52.2691 95.7731 52.6912 95.4795 53.1132C95.1859 53.5353 94.8281 53.8839 94.406 54.1592C93.9839 54.4344 93.4977 54.5721 92.9472 54.5721C92.2132 54.5721 91.6902 54.3427 91.3782 53.8839C91.0663 53.4252 90.9103 52.8288 90.9103 52.0948C90.9103 51.5626 90.9562 50.9846 91.0479 50.3607C91.158 49.7368 91.2773 49.0854 91.4057 48.4064H91.3232C90.8828 49.7643 90.424 50.8561 89.9469 51.6819C89.4881 52.4893 89.0202 53.104 88.5431 53.5261C88.0844 53.9482 87.6348 54.2234 87.1944 54.3519C86.754 54.4987 86.3411 54.5721 85.9557 54.5721C84.9648 54.5721 84.1299 54.2051 83.4509 53.4711C82.7903 52.737 82.46 51.5076 82.46 49.7827C82.46 48.4981 82.6252 47.2779 82.9555 46.1218C83.2858 44.9657 83.7812 43.9473 84.4418 43.0665C85.1208 42.1673 85.9649 41.47 86.9742 40.9746C87.9834 40.4608 89.1578 40.2039 90.4974 40.2039ZM89.6441 41.1948C88.8184 41.1948 88.0935 41.4241 87.4696 41.8829C86.8641 42.3417 86.3594 42.9656 85.9557 43.7546C85.552 44.5253 85.2492 45.397 85.0474 46.3695C84.8639 47.3237 84.7721 48.3055 84.7721 49.3147C84.7721 50.4891 84.9006 51.4617 85.1575 52.2324C85.4144 52.9848 85.8823 53.361 86.5613 53.361C87.0567 53.361 87.5522 53.1132 88.0477 52.6178C88.5615 52.1223 89.0386 51.4617 89.479 50.6359C89.9194 49.7918 90.3139 48.856 90.6626 47.8284C91.0112 46.7824 91.2865 45.7181 91.4883 44.6354C91.6902 43.5528 91.7911 42.516 91.7911 41.5251C91.5158 41.415 91.1947 41.3324 90.8277 41.2773C90.4607 41.2223 90.0662 41.1948 89.6441 41.1948ZM100.402 54.2693C100.384 54.1408 100.375 54.0307 100.375 53.939C100.375 53.8289 100.375 53.7004 100.375 53.5536C100.375 53.2417 100.384 52.8747 100.402 52.4526C100.421 52.0122 100.457 51.4342 100.513 50.7185C100.586 50.0029 100.687 49.067 100.815 47.9109C100.944 46.7182 101.045 45.819 101.118 45.2135C101.191 44.6079 101.247 44.1675 101.283 43.8922C101.32 43.5986 101.338 43.3601 101.338 43.1766C101.357 42.8096 101.329 42.4518 101.256 42.1031C101.201 41.7544 100.98 41.5801 100.595 41.5801C100.302 41.5801 99.962 41.782 99.5767 42.1857C99.1913 42.5894 98.861 43.2775 98.5858 44.2501L97.8151 44.0849C97.8701 43.7546 97.9802 43.3784 98.1454 42.9564C98.3289 42.516 98.5674 42.0847 98.861 41.6627C99.1546 41.2406 99.5124 40.892 99.9345 40.6167C100.357 40.3415 100.843 40.2039 101.393 40.2039C102.219 40.2039 102.77 40.4883 103.045 41.0571C103.32 41.626 103.439 42.3875 103.403 43.3417C103.384 43.7454 103.329 44.195 103.238 44.6905C103.164 45.1676 103.082 45.6722 102.99 46.2044H103.072C103.605 44.6079 104.155 43.3784 104.724 42.516C105.311 41.6535 105.898 41.0571 106.486 40.7268C107.091 40.3782 107.687 40.2039 108.275 40.2039C108.825 40.2039 109.284 40.3507 109.651 40.6443C110.018 40.9195 110.201 41.3049 110.201 41.8003C110.201 42.1306 110.082 42.4334 109.844 42.7087C109.623 42.9839 109.321 43.1215 108.935 43.1215C108.605 43.1215 108.321 43.0206 108.082 42.8188C107.843 42.6169 107.706 42.3325 107.669 41.9655C107.155 41.8554 106.651 42.0205 106.155 42.4609C105.678 42.9013 105.219 43.5344 104.779 44.3602C104.357 45.1676 103.981 46.0759 103.65 47.0852C103.338 48.0944 103.091 49.1221 102.907 50.168C102.724 51.214 102.632 52.1865 102.632 53.0857C102.632 53.361 102.632 53.572 102.632 53.7188C102.65 53.8472 102.669 54.0307 102.687 54.2693H100.402Z" fill="white"/>
<path d="M109.749 16.575L120.856 3C130.846 32.0628 129.345 41.6703 117.154 49.8955" stroke="white" stroke-width="2.46818"/>
<path d="M96.1743 37.5546C90.6757 26.568 90.5729 21.8707 90.0038 9.78751C111.713 19.739 119.622 25.2137 120.856 43.725" stroke="white" stroke-width="2.46818"/>
<path d="M133.197 42.4909C133.197 43.3275 131.797 50.9509 125.348 53.0884C118.899 55.2259 109.305 51.8543 108.688 51.2373C108.688 51.2373 110.199 51.2851 113.624 51.2373C116.148 51.2649 118.851 51.4674 121.399 51.0344C125.156 50.3959 128.457 48.0253 131.108 45.2884C133.004 43.3315 133.197 42.0844 133.197 42.4909Z" fill="white"/>
<path d="M135.11 36.3167C134.863 36.2718 132.432 36.354 130.998 38.5037C129.563 40.6533 129.389 45.9435 129.495 46.1932C129.495 46.1932 129.648 43.9191 130.088 42.7193C130.616 41.186 131.056 39.4365 132.43 38.3022C134.293 36.3345 135.293 36.3498 135.11 36.3167Z" fill="white"/>
<path d="M138.966 38.2651C138.778 38.1399 137.408 37.7115 135.368 38.2547C134.613 38.4556 133.911 38.8338 133.356 39.3833C131.585 41.1372 130.101 44.0992 130.112 44.3421C130.112 44.3421 131.034 43.2385 131.883 42.2764C132.934 41.0327 133.978 39.5454 135.696 39.0377C138.178 37.939 139.129 38.3734 138.966 38.2651Z" fill="white"/>
<path d="M3.55824 73.1364C2.97301 73.1364 2.46307 72.9901 2.02841 72.6974C1.59659 72.4048 1.26136 72.0043 1.02273 71.4957C0.784091 70.9872 0.664773 70.4077 0.664773 69.7571C0.664773 69.1009 0.785511 68.517 1.02699 68.0057C1.27131 67.4943 1.60938 67.0937 2.04119 66.804C2.47301 66.5114 2.97443 66.3651 3.54545 66.3651C3.98295 66.3651 4.37926 66.4503 4.73438 66.6207C5.08949 66.7884 5.3821 67.0256 5.61222 67.3324C5.84517 67.6364 5.99148 67.9915 6.05114 68.3977H5.28409C5.20455 68.0284 5.01278 67.7131 4.70881 67.4517C4.40767 67.1875 4.02415 67.0554 3.55824 67.0554C3.14063 67.0554 2.77131 67.169 2.45028 67.3963C2.12926 67.6207 1.87784 67.9347 1.69602 68.3381C1.51705 68.7386 1.42756 69.2031 1.42756 69.7315C1.42756 70.2628 1.51563 70.733 1.69176 71.142C1.8679 71.5483 2.11506 71.8665 2.43324 72.0966C2.75426 72.3267 3.12926 72.4418 3.55824 72.4418C3.84801 72.4418 4.11222 72.3878 4.35085 72.2798C4.59233 72.169 4.79403 72.0128 4.95597 71.8111C5.12074 71.6094 5.23153 71.3693 5.28835 71.0909H6.0554C5.99858 71.4858 5.85795 71.8381 5.63352 72.1477C5.41193 72.4545 5.12358 72.696 4.76847 72.8722C4.41619 73.0483 4.01278 73.1364 3.55824 73.1364ZM11.7674 73.1364C11.1566 73.1364 10.6282 72.9943 10.1822 72.7102C9.73617 72.4233 9.39099 72.027 9.14668 71.5213C8.9052 71.0128 8.78446 70.4276 8.78446 69.7656C8.78446 69.1065 8.9052 68.5213 9.14668 68.0099C9.39099 67.4957 9.72764 67.0937 10.1566 66.804C10.5884 66.5114 11.087 66.3651 11.6524 66.3651C12.0075 66.3651 12.3498 66.4304 12.6793 66.5611C13.0089 66.6889 13.3043 66.8864 13.5657 67.1534C13.8299 67.4176 14.0387 67.7514 14.1921 68.1548C14.3455 68.5554 14.4222 69.0298 14.4222 69.5781V69.9531H9.30861V69.2841H13.6467C13.6467 68.8636 13.5614 68.4858 13.391 68.1506C13.2234 67.8125 12.989 67.5455 12.6879 67.3494C12.3896 67.1534 12.0444 67.0554 11.6524 67.0554C11.2376 67.0554 10.8725 67.1662 10.5572 67.3878C10.2418 67.6094 9.99469 67.902 9.81571 68.2656C9.63957 68.6293 9.55009 69.027 9.54724 69.4588V69.8594C9.54724 70.3793 9.63673 70.8338 9.81571 71.223C9.99753 71.6094 10.2546 71.9091 10.587 72.1222C10.9194 72.3352 11.3129 72.4418 11.7674 72.4418C12.0771 72.4418 12.3484 72.3935 12.5813 72.2969C12.8171 72.2003 13.0146 72.071 13.1737 71.9091C13.3356 71.7443 13.4578 71.5639 13.5401 71.3679L14.2603 71.6023C14.1609 71.8778 13.9975 72.1321 13.7703 72.3651C13.5458 72.598 13.2646 72.7855 12.9265 72.9276C12.5913 73.0668 12.2049 73.1364 11.7674 73.1364ZM18.2923 68.9091V73H17.5338V66.4545H18.271V67.4815H18.3392C18.4926 67.1463 18.7312 66.8778 19.0551 66.6761C19.3818 66.4716 19.7852 66.3693 20.2653 66.3693C20.7056 66.3693 21.092 66.4616 21.4244 66.6463C21.7596 66.8281 22.0196 67.0966 22.2042 67.4517C22.3917 67.8068 22.4855 68.2429 22.4855 68.7599V73H21.7269V68.8068C21.7269 68.2699 21.5764 67.8452 21.2752 67.5327C20.9769 67.2202 20.5764 67.0639 20.0735 67.0639C19.7298 67.0639 19.4244 67.1378 19.1573 67.2855C18.8903 67.4332 18.6787 67.6463 18.5224 67.9247C18.369 68.2003 18.2923 68.5284 18.2923 68.9091ZM28.5011 66.4545V67.1151H25.3775V66.4545H28.5011ZM26.3534 64.8864H27.1162V71.2912C27.1162 71.5639 27.163 71.7784 27.2568 71.9347C27.3505 72.0881 27.4727 72.1974 27.6233 72.2628C27.7738 72.3253 27.9343 72.3565 28.1048 72.3565C28.2042 72.3565 28.2895 72.3509 28.3605 72.3395C28.4315 72.3253 28.494 72.3111 28.548 72.2969L28.7099 72.983C28.6361 73.0114 28.5451 73.0369 28.4372 73.0597C28.3292 73.0852 28.1957 73.098 28.0366 73.098C27.7582 73.098 27.4897 73.0369 27.2312 72.9148C26.9755 72.7926 26.7653 72.6108 26.6005 72.3693C26.4358 72.1278 26.3534 71.8281 26.3534 71.4702V64.8864ZM31.6638 73V66.4545H32.401V67.4602H32.4564C32.5871 67.1307 32.8143 66.8651 33.1382 66.6634C33.4649 66.4588 33.8342 66.3565 34.2462 66.3565C34.3087 66.3565 34.3783 66.358 34.455 66.3608C34.5317 66.3636 34.5956 66.3665 34.6467 66.3693V67.1406C34.6126 67.1349 34.553 67.1264 34.4677 67.1151C34.3825 67.1037 34.2902 67.098 34.1908 67.098C33.8498 67.098 33.5459 67.1705 33.2788 67.3153C33.0146 67.4574 32.8058 67.6548 32.6524 67.9077C32.499 68.1605 32.4223 68.4489 32.4223 68.7727V73H31.6638ZM39.7259 73.1364C39.1606 73.1364 38.6606 72.9929 38.2259 72.706C37.7941 72.419 37.456 72.0227 37.2117 71.517C36.9674 71.0085 36.8452 70.4219 36.8452 69.7571C36.8452 69.0866 36.9674 68.4972 37.2117 67.9886C37.456 67.4773 37.7941 67.0795 38.2259 66.7955C38.6606 66.5085 39.1606 66.3651 39.7259 66.3651C40.2913 66.3651 40.7898 66.5085 41.2217 66.7955C41.6535 67.0824 41.9915 67.4801 42.2359 67.9886C42.483 68.4972 42.6066 69.0866 42.6066 69.7571C42.6066 70.4219 42.4844 71.0085 42.2401 71.517C41.9958 72.0227 41.6563 72.419 41.2217 72.706C40.7898 72.9929 40.2913 73.1364 39.7259 73.1364ZM39.7259 72.4418C40.1805 72.4418 40.5654 72.3196 40.8808 72.0753C41.1961 71.831 41.4347 71.5057 41.5967 71.0994C41.7614 70.6932 41.8438 70.2457 41.8438 69.7571C41.8438 69.2685 41.7614 68.8196 41.5967 68.4105C41.4347 68.0014 41.1961 67.6733 40.8808 67.4261C40.5654 67.179 40.1805 67.0554 39.7259 67.0554C39.2742 67.0554 38.8893 67.179 38.5711 67.4261C38.2558 67.6733 38.0157 68.0014 37.8509 68.4105C37.689 68.8196 37.608 69.2685 37.608 69.7571C37.608 70.2457 37.689 70.6932 37.8509 71.0994C38.0157 71.5057 38.2558 71.831 38.5711 72.0753C38.8864 72.3196 39.2714 72.4418 39.7259 72.4418ZM52.8833 73.1364C52.3463 73.1364 51.8762 72.9943 51.4728 72.7102C51.0693 72.4261 50.754 72.0298 50.5267 71.5213C50.3023 71.0128 50.1901 70.4205 50.1901 69.7443C50.1901 69.071 50.3023 68.4815 50.5267 67.9759C50.754 67.4673 51.0708 67.0724 51.477 66.7912C51.8833 66.5071 52.3563 66.3651 52.8961 66.3651C53.2938 66.3651 53.6247 66.4361 53.889 66.5781C54.1532 66.7173 54.3648 66.8906 54.5239 67.098C54.683 67.3054 54.8066 67.5071 54.8946 67.7031H54.9628V64.2727H55.7256V73H54.9841V71.7855H54.8946C54.8066 71.9844 54.6816 72.1889 54.5196 72.3991C54.3577 72.6065 54.1432 72.7812 53.8762 72.9233C53.612 73.0653 53.281 73.1364 52.8833 73.1364ZM52.9728 72.4418C53.3961 72.4418 53.7568 72.3267 54.0551 72.0966C54.3534 71.8636 54.5807 71.544 54.737 71.1378C54.8961 70.7287 54.9756 70.2599 54.9756 69.7315C54.9756 69.2088 54.8975 68.7472 54.7412 68.3466C54.585 67.9432 54.3577 67.6278 54.0594 67.4006C53.7611 67.1705 53.3989 67.0554 52.9728 67.0554C52.5353 67.0554 52.1659 67.1747 51.8648 67.4134C51.5665 67.6491 51.3392 67.9687 51.183 68.3722C51.0296 68.7756 50.9529 69.2287 50.9529 69.7315C50.9529 70.2401 51.031 70.6989 51.1872 71.108C51.3435 71.517 51.5708 71.8423 51.8691 72.0838C52.1702 72.3224 52.5381 72.4418 52.9728 72.4418ZM61.9724 73.1364C61.3616 73.1364 60.8332 72.9943 60.3872 72.7102C59.9412 72.4233 59.596 72.027 59.3517 71.5213C59.1102 71.0128 58.9895 70.4276 58.9895 69.7656C58.9895 69.1065 59.1102 68.5213 59.3517 68.0099C59.596 67.4957 59.9326 67.0937 60.3616 66.804C60.7934 66.5114 61.292 66.3651 61.8574 66.3651C62.2125 66.3651 62.5548 66.4304 62.8843 66.5611C63.2139 66.6889 63.5093 66.8864 63.7707 67.1534C64.0349 67.4176 64.2437 67.7514 64.3971 68.1548C64.5505 68.5554 64.6272 69.0298 64.6272 69.5781V69.9531H59.5136V69.2841H63.8517C63.8517 68.8636 63.7664 68.4858 63.596 68.1506C63.4284 67.8125 63.194 67.5455 62.8929 67.3494C62.5946 67.1534 62.2494 67.0554 61.8574 67.0554C61.4426 67.0554 61.0775 67.1662 60.7622 67.3878C60.4468 67.6094 60.1997 67.902 60.0207 68.2656C59.8446 68.6293 59.7551 69.027 59.7522 69.4588V69.8594C59.7522 70.3793 59.8417 70.8338 60.0207 71.223C60.2025 71.6094 60.4596 71.9091 60.792 72.1222C61.1244 72.3352 61.5179 72.4418 61.9724 72.4418C62.2821 72.4418 62.5534 72.3935 62.7863 72.2969C63.0221 72.2003 63.2196 72.071 63.3787 71.9091C63.5406 71.7443 63.6628 71.5639 63.7451 71.3679L64.4653 71.6023C64.3659 71.8778 64.2025 72.1321 63.9753 72.3651C63.7508 72.598 63.4696 72.7855 63.1315 72.9276C62.7963 73.0668 62.4099 73.1364 61.9724 73.1364ZM75.2001 73.1364C74.5893 73.1364 74.0609 72.9943 73.6148 72.7102C73.1688 72.4233 72.8237 72.027 72.5793 71.5213C72.3379 71.0128 72.2171 70.4276 72.2171 69.7656C72.2171 69.1065 72.3379 68.5213 72.5793 68.0099C72.8237 67.4957 73.1603 67.0937 73.5893 66.804C74.0211 66.5114 74.5197 66.3651 75.085 66.3651C75.4401 66.3651 75.7825 66.4304 76.112 66.5611C76.4415 66.6889 76.737 66.8864 76.9984 67.1534C77.2626 67.4176 77.4714 67.7514 77.6248 68.1548C77.7782 68.5554 77.8549 69.0298 77.8549 69.5781V69.9531H72.7413V69.2841H77.0793C77.0793 68.8636 76.9941 68.4858 76.8237 68.1506C76.656 67.8125 76.4217 67.5455 76.1205 67.3494C75.8222 67.1534 75.4771 67.0554 75.085 67.0554C74.6702 67.0554 74.3052 67.1662 73.9898 67.3878C73.6745 67.6094 73.4273 67.902 73.2484 68.2656C73.0722 68.6293 72.9827 69.027 72.9799 69.4588V69.8594C72.9799 70.3793 73.0694 70.8338 73.2484 71.223C73.4302 71.6094 73.6873 71.9091 74.0197 72.1222C74.3521 72.3352 74.7455 72.4418 75.2001 72.4418C75.5097 72.4418 75.781 72.3935 76.014 72.2969C76.2498 72.2003 76.4472 72.071 76.6063 71.9091C76.7683 71.7443 76.8904 71.5639 76.9728 71.3679L77.693 71.6023C77.5935 71.8778 77.4302 72.1321 77.2029 72.3651C76.9785 72.598 76.6972 72.7855 76.3592 72.9276C76.0239 73.0668 75.6376 73.1364 75.2001 73.1364ZM85.3642 67.8906L84.6695 68.0866C84.6014 67.8906 84.5048 67.7131 84.3798 67.554C84.2548 67.3949 84.0914 67.2685 83.8897 67.1747C83.6909 67.081 83.4437 67.0341 83.1482 67.0341C82.7051 67.0341 82.3414 67.1392 82.0573 67.3494C81.7732 67.5597 81.6312 67.831 81.6312 68.1634C81.6312 68.4446 81.7278 68.6733 81.921 68.8494C82.117 69.0227 82.4181 69.1605 82.8244 69.2628L83.813 69.5057C84.3613 69.6392 84.7718 69.8509 85.0445 70.1406C85.3201 70.4304 85.4579 70.794 85.4579 71.2315C85.4579 71.6009 85.3556 71.929 85.1511 72.2159C84.9465 72.5028 84.661 72.7287 84.2945 72.8935C83.9309 73.0554 83.509 73.1364 83.0289 73.1364C82.3897 73.1364 81.8627 72.9929 81.448 72.706C81.0332 72.4162 80.7676 71.9986 80.6511 71.4531L81.3798 71.2741C81.4735 71.6634 81.6568 71.9574 81.9295 72.1562C82.2051 72.3551 82.5673 72.4545 83.0161 72.4545C83.519 72.4545 83.921 72.3423 84.2221 72.1179C84.5232 71.8906 84.6738 71.6065 84.6738 71.2656C84.6738 71.0014 84.5857 70.7798 84.4096 70.6009C84.2335 70.419 83.9664 70.2855 83.6085 70.2003L82.5389 69.9446C81.9707 69.8082 81.5502 69.5923 81.2775 69.2969C81.0048 69.0014 80.8684 68.6349 80.8684 68.1974C80.8684 67.8366 80.9664 67.5199 81.1624 67.2472C81.3585 66.9716 81.6284 66.7557 81.9721 66.5994C82.3159 66.4432 82.7079 66.3651 83.1482 66.3651C83.7477 66.3651 84.2264 66.5014 84.5843 66.7741C84.9451 67.044 85.2051 67.4162 85.3642 67.8906ZM91.1369 66.4545V67.1151H88.0133V66.4545H91.1369ZM88.9892 64.8864H89.7519V71.2912C89.7519 71.5639 89.7988 71.7784 89.8926 71.9347C89.9863 72.0881 90.1085 72.1974 90.259 72.2628C90.4096 72.3253 90.5701 72.3565 90.7406 72.3565C90.84 72.3565 90.9252 72.3509 90.9963 72.3395C91.0673 72.3253 91.1298 72.3111 91.1838 72.2969L91.3457 72.983C91.2718 73.0114 91.1809 73.0369 91.073 73.0597C90.965 73.0852 90.8315 73.098 90.6724 73.098C90.394 73.098 90.1255 73.0369 89.867 72.9148C89.6113 72.7926 89.4011 72.6108 89.2363 72.3693C89.0715 72.1278 88.9892 71.8281 88.9892 71.4702V64.8864ZM96.8755 73.1364C96.2647 73.1364 95.7363 72.9943 95.2903 72.7102C94.8443 72.4233 94.4991 72.027 94.2548 71.5213C94.0133 71.0128 93.8926 70.4276 93.8926 69.7656C93.8926 69.1065 94.0133 68.5213 94.2548 68.0099C94.4991 67.4957 94.8358 67.0937 95.2647 66.804C95.6966 66.5114 96.1951 66.3651 96.7605 66.3651C97.1156 66.3651 97.4579 66.4304 97.7875 66.5611C98.117 66.6889 98.4125 66.8864 98.6738 67.1534C98.938 67.4176 99.1468 67.7514 99.3003 68.1548C99.4537 68.5554 99.5304 69.0298 99.5304 69.5781V69.9531H94.4167V69.2841H98.7548C98.7548 68.8636 98.6696 68.4858 98.4991 68.1506C98.3315 67.8125 98.0971 67.5455 97.796 67.3494C97.4977 67.1534 97.1525 67.0554 96.7605 67.0554C96.3457 67.0554 95.9807 67.1662 95.6653 67.3878C95.35 67.6094 95.1028 67.902 94.9238 68.2656C94.7477 68.6293 94.6582 69.027 94.6554 69.4588V69.8594C94.6554 70.3793 94.7449 70.8338 94.9238 71.223C95.1057 71.6094 95.3628 71.9091 95.6951 72.1222C96.0275 72.3352 96.421 72.4418 96.8755 72.4418C97.1852 72.4418 97.4565 72.3935 97.6895 72.2969C97.9253 72.2003 98.1227 72.071 98.2818 71.9091C98.4437 71.7443 98.5659 71.5639 98.6483 71.3679L99.3684 71.6023C99.269 71.8778 99.1057 72.1321 98.8784 72.3651C98.654 72.598 98.3727 72.7855 98.0346 72.9276C97.6994 73.0668 97.313 73.1364 96.8755 73.1364ZM96.3684 65.5469L97.4593 63.6122H98.3585L97.0503 65.5469H96.3684ZM105.22 66.4545V67.1151H102.096V66.4545H105.22ZM103.072 64.8864H103.835V71.2912C103.835 71.5639 103.882 71.7784 103.976 71.9347C104.069 72.0881 104.192 72.1974 104.342 72.2628C104.493 72.3253 104.653 72.3565 104.824 72.3565C104.923 72.3565 105.008 72.3509 105.079 72.3395C105.15 72.3253 105.213 72.3111 105.267 72.2969L105.429 72.983C105.355 73.0114 105.264 73.0369 105.156 73.0597C105.048 73.0852 104.915 73.098 104.756 73.098C104.477 73.098 104.209 73.0369 103.95 72.9148C103.694 72.7926 103.484 72.6108 103.319 72.3693C103.155 72.1278 103.072 71.8281 103.072 71.4702V64.8864ZM108.391 73V66.4545H109.154V73H108.391ZM108.779 65.3295C108.623 65.3295 108.489 65.277 108.378 65.1719C108.268 65.0639 108.212 64.9347 108.212 64.7841C108.212 64.6335 108.268 64.5057 108.378 64.4006C108.489 64.2926 108.623 64.2386 108.779 64.2386C108.935 64.2386 109.069 64.2926 109.18 64.4006C109.29 64.5057 109.346 64.6335 109.346 64.7841C109.346 64.9347 109.29 65.0639 109.18 65.1719C109.069 65.277 108.935 65.3295 108.779 65.3295ZM115.157 73.1364C114.572 73.1364 114.062 72.9901 113.627 72.6974C113.195 72.4048 112.86 72.0043 112.621 71.4957C112.383 70.9872 112.263 70.4077 112.263 69.7571C112.263 69.1009 112.384 68.517 112.626 68.0057C112.87 67.4943 113.208 67.0937 113.64 66.804C114.072 66.5114 114.573 66.3651 115.144 66.3651C115.582 66.3651 115.978 66.4503 116.333 66.6207C116.688 66.7884 116.981 67.0256 117.211 67.3324C117.444 67.6364 117.59 67.9915 117.65 68.3977H116.883C116.803 68.0284 116.611 67.7131 116.307 67.4517C116.006 67.1875 115.623 67.0554 115.157 67.0554C114.739 67.0554 114.37 67.169 114.049 67.3963C113.728 67.6207 113.476 67.9347 113.295 68.3381C113.116 68.7386 113.026 69.2031 113.026 69.7315C113.026 70.2628 113.114 70.733 113.29 71.142C113.466 71.5483 113.714 71.8665 114.032 72.0966C114.353 72.3267 114.728 72.4418 115.157 72.4418C115.447 72.4418 115.711 72.3878 115.949 72.2798C116.191 72.169 116.393 72.0128 116.555 71.8111C116.719 71.6094 116.83 71.3693 116.887 71.0909H117.654C117.597 71.4858 117.457 71.8381 117.232 72.1477C117.011 72.4545 116.722 72.696 116.367 72.8722C116.015 73.0483 115.611 73.1364 115.157 73.1364ZM122.548 73.1491C122.153 73.1491 121.792 73.0724 121.465 72.919C121.139 72.7628 120.879 72.5384 120.686 72.2457C120.492 71.9503 120.396 71.5923 120.396 71.1719C120.396 70.848 120.457 70.5753 120.579 70.3537C120.701 70.1321 120.875 69.9503 121.099 69.8082C121.323 69.6662 121.589 69.554 121.896 69.4716C122.203 69.3892 122.541 69.3253 122.91 69.2798C123.277 69.2344 123.586 69.1946 123.839 69.1605C124.095 69.1264 124.289 69.0724 124.423 68.9986C124.556 68.9247 124.623 68.8054 124.623 68.6406V68.4872C124.623 68.0412 124.49 67.6903 124.223 67.4347C123.958 67.1761 123.578 67.0469 123.081 67.0469C122.609 67.0469 122.224 67.1506 121.926 67.358C121.63 67.5653 121.423 67.8097 121.304 68.0909L120.583 67.831C120.731 67.473 120.936 67.1875 121.197 66.9744C121.458 66.7585 121.751 66.6037 122.075 66.5099C122.399 66.4134 122.727 66.3651 123.059 66.3651C123.309 66.3651 123.569 66.3977 123.839 66.4631C124.112 66.5284 124.365 66.642 124.598 66.804C124.831 66.9631 125.019 67.1861 125.164 67.473C125.309 67.7571 125.382 68.1179 125.382 68.5554V73H124.623V71.9645H124.576C124.485 72.1577 124.35 72.3452 124.171 72.527C123.992 72.7088 123.768 72.858 123.498 72.9744C123.228 73.0909 122.911 73.1491 122.548 73.1491ZM122.65 72.4545C123.054 72.4545 123.403 72.3651 123.698 72.1861C123.994 72.0071 124.221 71.7699 124.38 71.4744C124.542 71.1761 124.623 70.848 124.623 70.4901V69.544C124.566 69.598 124.471 69.6463 124.338 69.6889C124.207 69.7315 124.055 69.7699 123.882 69.804C123.711 69.8352 123.541 69.8622 123.37 69.8849C123.2 69.9077 123.046 69.9276 122.91 69.9446C122.541 69.9901 122.225 70.0611 121.964 70.1577C121.703 70.2543 121.502 70.3878 121.363 70.5582C121.224 70.7259 121.154 70.9418 121.154 71.206C121.154 71.6037 121.296 71.9119 121.581 72.1307C121.865 72.3466 122.221 72.4545 122.65 72.4545Z" fill="white"/>
</svg>
